<?xml version="1.0" encoding="utf-8"?>
<!-- Generator: Adobe Illustrator 24.0.3, SVG Export Plug-In . SVG Version: 6.00 Build 0)  -->
<svg version="1.1" id="Layer_1" xmlns="http://www.w3.org/2000/svg" xmlns:xlink="http://www.w3.org/1999/xlink" x="0px" y="0px"
	 viewBox="0 0 217.88 111.67" style="enable-background:new 0 0 217.88 111.67;" xml:space="preserve">
<line style="fill:none;stroke:#E0E3E4;stroke-miterlimit:10;" x1="3.3" y1="109.01" x2="213.03" y2="109.01"/>
<line style="fill:none;stroke:#E0E3E4;stroke-miterlimit:10;" x1="3.3" y1="91.17" x2="213.03" y2="91.17"/>
<line style="fill:none;stroke:#E0E3E4;stroke-miterlimit:10;" x1="3.3" y1="73.34" x2="213.03" y2="73.34"/>
<line style="fill:none;stroke:#E0E3E4;stroke-miterlimit:10;" x1="38.96" y1="55.5" x2="213.03" y2="55.5"/>
<line style="fill:#FFFFFF;stroke:#54A555;stroke-miterlimit:10;" x1="5.6" y1="55.5" x2="38.96" y2="55.5"/>
<line style="fill:none;stroke:#E0E3E4;stroke-miterlimit:10;" x1="3.3" y1="37.67" x2="213.03" y2="37.67"/>
<line style="fill:none;stroke:#E0E3E4;stroke-miterlimit:10;" x1="3.3" y1="19.83" x2="213.03" y2="19.83"/>
<line style="fill:none;stroke:#E0E3E4;stroke-miterlimit:10;" x1="3.3" y1="2" x2="213.03" y2="2"/>
<g>
	
		<rect x="3.56" y="53.31" transform="matrix(0.707 -0.7072 0.7072 0.707 -37.5053 20.1806)" style="fill:#FFFFFF;" width="4.1" height="4.1"/>
	<path style="fill:#54A555;" d="M5.6,53.17l2.19,2.19L5.6,57.55l-2.19-2.19L5.6,53.17 M5.6,51.75L2,55.36l3.6,3.6l3.6-3.6L5.6,51.75
		L5.6,51.75z"/>
</g>
<g>
	
		<rect x="36.91" y="53.31" transform="matrix(0.707 -0.7072 0.7072 0.707 -27.733 43.7702)" style="fill:#FFFFFF;" width="4.1" height="4.1"/>
	<path style="fill:#54A555;" d="M38.96,53.17l2.19,2.19l-2.19,2.19l-2.19-2.19L38.96,53.17 M38.96,51.75l-3.6,3.6l3.6,3.6l3.6-3.6
		L38.96,51.75L38.96,51.75z"/>
</g>
<g>
	
		<rect x="70.27" y="53.31" transform="matrix(0.7071 -0.7071 0.7071 0.7071 -17.9618 67.352)" style="fill:#FFFFFF;" width="4.1" height="4.1"/>
	<path style="fill:#E0E3E4;" d="M72.32,53.17l2.19,2.19l-2.19,2.19l-2.19-2.19L72.32,53.17 M72.32,51.75l-3.6,3.6l3.6,3.6l3.6-3.6
		L72.32,51.75L72.32,51.75z"/>
</g>
<g>
	
		<rect x="103.63" y="53.31" transform="matrix(0.707 -0.7072 0.7072 0.707 -8.1885 90.949)" style="fill:#FFFFFF;" width="4.1" height="4.1"/>
	<path style="fill:#E0E3E4;" d="M105.68,53.17l2.19,2.19l-2.19,2.19l-2.19-2.19L105.68,53.17 M105.68,51.75l-3.6,3.6l3.6,3.6
		l3.6-3.6L105.68,51.75L105.68,51.75z"/>
</g>
<g>
	
		<rect x="136.99" y="53.31" transform="matrix(0.707 -0.7072 0.7072 0.707 1.5837 114.5386)" style="fill:#FFFFFF;" width="4.1" height="4.1"/>
	<path style="fill:#E0E3E4;" d="M139.04,53.17l2.19,2.19l-2.19,2.19l-2.19-2.19L139.04,53.17 M139.04,51.75l-3.6,3.6l3.6,3.6
		l3.6-3.6L139.04,51.75L139.04,51.75z"/>
</g>
<g>
	
		<rect x="170.34" y="53.31" transform="matrix(0.7071 -0.7071 0.7071 0.7071 11.349 138.1145)" style="fill:#FFFFFF;" width="4.1" height="4.1"/>
	<path style="fill:#E0E3E4;" d="M172.39,53.17l2.19,2.19l-2.19,2.19l-2.19-2.19L172.39,53.17 M172.39,51.75l-3.6,3.6l3.6,3.6
		l3.6-3.6L172.39,51.75L172.39,51.75z"/>
</g>
<g>
	
		<rect x="203.7" y="53.31" transform="matrix(0.707 -0.7072 0.7072 0.707 21.1282 161.7175)" style="fill:#FFFFFF;" width="4.1" height="4.1"/>
	<path style="fill:#E0E3E4;" d="M205.75,53.17l2.19,2.19l-2.19,2.19l-2.19-2.19L205.75,53.17 M205.75,51.75l-3.6,3.6l3.6,3.6
		l3.6-3.6L205.75,51.75L205.75,51.75z"/>
</g>
</svg>
