<svg id="art" xmlns="http://www.w3.org/2000/svg" width="245.99" height="245.99" viewBox="0 0 245.99 245.99">
  <defs>
    <style>
      .cls-1 {
        fill: #fdba12;
      }

      .cls-2 {
        fill: #f57f20;
      }

      .cls-3 {
        fill: #3093d1;
      }

      .cls-4 {
        fill: #fbad18;
      }

      .cls-5 {
        fill: #6b6d73;
      }

      .cls-6 {
        fill: #babec5;
      }

      .cls-7 {
        fill: #d4d7dc;
      }

      .cls-8 {
        fill: #854c20;
      }

      .cls-9 {
        fill: #035493;
      }

      .cls-10 {
        fill: #1877bd;
      }

      .cls-11 {
        fill: #f9cfae;
      }

      .cls-12 {
        fill: #ffcb06;
      }

      .cls-13 {
        fill: #f15922;
      }

      .cls-14 {
        fill: #f26b21;
      }

      .cls-15, .cls-20, .cls-21 {
        fill: none;
      }

      .cls-15 {
        stroke: #854c20;
        stroke-width: 0.95px;
      }

      .cls-15, .cls-20 {
        stroke-linecap: round;
        stroke-linejoin: round;
      }

      .cls-16 {
        fill: #fff;
      }

      .cls-17 {
        fill: #f79237;
      }

      .cls-18 {
        fill: #dca174;
      }

      .cls-19 {
        fill: #393a3d;
      }

      .cls-20, .cls-21 {
        stroke: #d4d7dc;
        stroke-width: 0.89px;
      }

      .cls-21 {
        stroke-miterlimit: 10;
      }
    </style>
  </defs>
  <g>
    <circle class="cls-1" cx="60.34" cy="65.92" r="2.57"/>
    <circle class="cls-1" cx="141.67" cy="28.17" r="2.57"/>
    <circle class="cls-2" cx="71.12" cy="48.93" r="2.06"/>
    <circle class="cls-2" cx="96.42" cy="49.13" r="2.06"/>
    <circle class="cls-2" cx="151.99" cy="63.78" r="2.06"/>
    <circle class="cls-2" cx="211.1" cy="64.29" r="2.06"/>
    <path class="cls-3" d="M33.16,31.88a53.57,53.57,0,0,0,2.31,9.05c.24.72.5,1.44.77,2.16l.09.25,0,.13a2.72,2.72,0,0,0,.11.25,2.45,2.45,0,0,0,.38.5,2.69,2.69,0,0,0,2.53.67l1.1-.32.64-.18a5.49,5.49,0,0,1,.79-.15,6,6,0,0,1,3.08.5,6.37,6.37,0,0,1,2.41,1.93A6,6,0,0,1,48.15,48l.43,1.06c1.2,2.79,2.43,5.58,3.88,8.27l-3.67,1.52c-.87-2.93-2-5.78-3.1-8.6l-.44-1a2.54,2.54,0,0,0-.36-.66,2.43,2.43,0,0,0-1.15-.84,2.66,2.66,0,0,0-1.39-.14,1.92,1.92,0,0,0-.32.09l-.17.06-.27.1-1.06.42a6.44,6.44,0,0,1-3.14.37,7.08,7.08,0,0,1-3-1.12,6.86,6.86,0,0,1-1.26-1.1,5.86,5.86,0,0,1-.54-.67l-.4-.64c-.41-.64-.82-1.29-1.26-1.92a53.76,53.76,0,0,0-5.79-7.32Z"/>
    <path class="cls-4" d="M124.39,9.82A52.67,52.67,0,0,0,125.64,20a8.81,8.81,0,0,1,.18.9,8,8,0,0,1,.06,1,7.42,7.42,0,0,1-.23,1.78,7.52,7.52,0,0,1-1.57,3.11,6.13,6.13,0,0,1-.67.68l-.52.41-1,.77-2,1.57-3.85,3.2-.47.4a2.09,2.09,0,0,0-.2.22,1.54,1.54,0,0,0-.26.53,1.47,1.47,0,0,0,.18,1.16,1.54,1.54,0,0,0,.21.27l.43.47.84.92c.55.62,1.14,1.22,1.71,1.83q1.71,1.83,3.54,3.55L119,45.43c-1-1.35-2-2.68-3.06-4-.53-.65-1-1.31-1.6-1.94l-.81-1-.4-.48a5.12,5.12,0,0,1-.53-.73,4.83,4.83,0,0,1,.23-5.37,5.39,5.39,0,0,1,.65-.7l.47-.43,3.68-3.4,1.81-1.73.9-.87c.14-.14.32-.31.42-.42a2.5,2.5,0,0,0,.18-.24,3,3,0,0,0,.44-1.41,2.36,2.36,0,0,0-.06-.72.79.79,0,0,0-.1-.27,2.31,2.31,0,0,1-.16-.31,51.49,51.49,0,0,0-5.11-8.84Z"/>
    <path class="cls-2" d="M228.86,39.12a34.2,34.2,0,0,0-7.47,6.32c-.55.59-1.06,1.2-1.57,1.8l-.76.92a6.35,6.35,0,0,1-1.22,1.16,7,7,0,0,1-6,1.09l-2.28-.77-.57-.18a2.63,2.63,0,0,0-.39-.11,2.6,2.6,0,0,0-.84,0,4.33,4.33,0,0,0-1.71.5,3.68,3.68,0,0,0-.71.48,4.05,4.05,0,0,0-.59.71c-1.9,2.54-3.74,5.12-5.42,7.83l-3-2.32c2.18-2.31,4.21-4.75,6.18-7.23a8,8,0,0,1,1-1.08,7.15,7.15,0,0,1,4.05-1.71,6.67,6.67,0,0,1,1.54,0,5.66,5.66,0,0,1,.76.16l.57.16,2.27.61a3.61,3.61,0,0,0,3-.9,2.72,2.72,0,0,0,.44-.55l.63-1c.42-.68.83-1.36,1.22-2.06a34.36,34.36,0,0,0,3.67-9.07Z"/>
    <path class="cls-5" d="M159.15,220.65c-3.33,4.14-22.26,3.14-21.89,5.39s15.25,10.12,28.8,5.72a3.59,3.59,0,0,0,2.49-3.46l-.1-7.11S162.24,219.31,159.15,220.65Z"/>
    <path class="cls-5" d="M208.87,177.21l4.91-1.86a3.56,3.56,0,0,1,4.65,2.13c2.56,7.22,7.69,21.57,4.74,22.78-3.8,1.57-11.94-13.11-14.72-14.18S208.87,177.21,208.87,177.21Z"/>
    <path class="cls-6" d="M167.65,133.55c-10.59,5.8-20.29,31.52-21.59,42.45-2.16,18.17,8.37,23.43,10.06,45l14.09,2.51c.73-31.47-9.06-39.59-6.48-45.39,4-9.1,21.36-25.07,22.89-34.94S176.85,128.51,167.65,133.55Z"/>
    <path class="cls-7" d="M179,143.17c-2.41,9.65-4.58,48.55,3.8,53.87,7.65,4.85,17.8-6.06,26.18-6.36l.79-13.76a55.64,55.64,0,0,0-14.17,5,100.35,100.35,0,0,0,7.48-31.57C203.94,135,181.89,131.76,179,143.17Z"/>
    <path class="cls-8" d="M167.35,77.86c-6-4.08-21.92,22.58-21.92,22.58s-4.93-14.07-7.67-20.53c-3.07-7.23-7.76-6.5-6,5.56s4.82,40.67,17.41,40C156.83,125,176.33,84,167.35,77.86Z"/>
    <path class="cls-9" d="M170.2,75.87C161.57,73.67,149.09,94,149.09,94l19.59,10.39S180.71,78.56,170.2,75.87Z"/>
    <path class="cls-10" d="M162.12,79.62c-7.32,14.42,9.69,34.59,10.32,36.67s-10.55,15.65-11.27,23.38c-.13,1.44,9.9,2.19,16.68,3.86,11.4,2.79,22.76,7.86,25.77,6.93,4.8-1.48,8.43-14.08,8.21-29s.42-38.1-11.39-48.43C192.86,66.41,167.45,69.1,162.12,79.62Z"/>
    <path class="cls-8" d="M164.37,46.61c-2,2.78-.25,19.17,6.31,18.42,0,0,1.51,8.57,2.27,12.36s14.13,5,16.4-6.56c0,0-7.57-7.06-8.83-14.38S171.19,37.23,164.37,46.61Z"/>
    <circle class="cls-8" cx="180.23" cy="52.87" r="3.57"/>
    <path class="cls-4" d="M91.84,59.86c9.54,1.66,9.46,9.36,11.24,18.06,4.49,22,16.33,10.64,22.11,26.3s-11.28,31.1-27.72,25.38c-24-8.34-18.67-53.07-18.35-58.27C79.56,64.42,85.14,58.7,91.84,59.86Z"/>
    <path class="cls-11" d="M80.93,216.61l1.49,5s12.14-12.76,15.25-6.56a64.54,64.54,0,0,0-7.74,9c-3.16,4.61-5,9.67-9.69,10.69,0,0-4.36-7.43-5.85-14.56S80.93,216.61,80.93,216.61Z"/>
    <path class="cls-12" d="M89.51,215.62c.68.49,1.24,1.14.88,1.85-.57,1.14-8.11,6.74-12.7,12.28,1.35,2.95,2.55,5,2.55,5,4.8-1.05,7.05-6.38,10.23-11.07a62.52,62.52,0,0,1,7.2-8.57C96.21,212.19,92.76,213.46,89.51,215.62Z"/>
    <path class="cls-11" d="M27.09,171.14s-5.35-3.39-7.28-2.41-5.75,14.9-4.83,20.12c0,0,2.18,5.41,3.72,5.06S27.09,171.14,27.09,171.14Z"/>
    <path class="cls-13" d="M81.53,88.77C85.29,83.44,101,105.93,101,105.93s6.85-12.77,9.51-23.92c1.41-5.94,6.56-2.15,6.16,3.25-.23,3.22,1.58,34.62-11.64,39.48C94.07,128.76,78,93.82,81.53,88.77Z"/>
    <path class="cls-9" d="M54.4,139.36c.74,24.49,16,35,17.63,40.16s-8.32,11.26,2.66,42.74c0,0,6.4-1.16,7.13-3,.25-20.91,5.06-25.86,5.65-43.11S80.93,142,74.69,136,54.09,128.94,54.4,139.36Z"/>
    <path class="cls-10" d="M42.28,126.53c-13,15.94-8.24,48.54-8.69,49.31s-1.64-3.16-7.39-5.26c-2.15-1-4.78,2-1.83,8.12,3.55,7.32,9.51,20.44,17.43,19.09C52,196,63.12,153.52,63.12,140.73S51.5,115.23,42.28,126.53Z"/>
    <path class="cls-14" d="M60.42,83.71c8.07-4.11,19.73-.47,26.72,6.27,4.59,4.42,7.12,18.65,6.57,22-1.89,11.63-9.45,25-14.58,31-6.2,7.28-40,1.3-39.1-15.64.33-6.16,12.27-12.74,13-16.3S47.79,90.14,60.42,83.71Z"/>
    <g>
      <path class="cls-11" d="M96.81,71.39c-.32,4.29-4.09,7.42-8.18,8.32-2.59.56-4.27,9.17-5.46,11.71s-10.86,2-11.43-5c-.22-2.63,7.78-13.32,10-18.1A9.09,9.09,0,0,1,91.56,63C95.82,64,97.12,67.09,96.81,71.39Z"/>
      <circle class="cls-11" cx="80.3" cy="70.17" r="3.57"/>
      <g>
        <line class="cls-15" x1="91.63" y1="69.53" x2="93.77" y2="69.96"/>
        <path class="cls-15" d="M94.33,68.49,94,72a1.36,1.36,0,0,0,1.12,1.58l.82.17a1.72,1.72,0,0,0,2-1l1.34-3.57L86,66.63l-.33,3.28a2.55,2.55,0,0,0,2.23,2.61l.61.11c1.15.21,1.73-.38,2.23-1.28l1.4-3.44"/>
      </g>
      <path class="cls-16" d="M80.32,73.61c0-.47.24-.53.49-.13l1.43,2.34a3,3,0,0,1,.37,1.59l-.24,2.53c0,.47-.27.52-.52.11l-1.28-2.13a3.38,3.38,0,0,1-.4-1.59Z"/>
    </g>
    <path class="cls-17" d="M63.69,84.68c-5.31-5.62-31.53,9.53-40.16,20.23s-12.17,29.2-12.89,35.54c-.81,7.11,4.11,5.89,7.24.15,3.7-6.79,14.58-19.39,16.71-21.87S71.76,93.23,63.69,84.68Z"/>
    <path class="cls-18" d="M17.44,142.21c.79,2.77-1.13,4.5-.35,6.27s5.58,7.29,3.06,12c-1.49-2.29-8.24-4.86-9.48-8.29-.89-2.47-.56-8.95.91-11.58S16.65,139.45,17.44,142.21Z"/>
    <path class="cls-11" d="M12.64,139c3.42,0,.47,9.32,3.8,12.77-3.33,1.08-5-5-5-5-2.65,3.67,6,9.37,3.42,12.38-.93-1.93-4.52-4-6.07-7.39S10,141.87,12.64,139Z"/>
    <path class="cls-11" d="M120.12,69.17c.85-2.63,3-7.55,3-7.55A29.11,29.11,0,0,0,117.4,63c-4.71,2.31-6.2,10.8-6.2,10.8-1.92.08-.19-6.91-4.54-7.43,2.57,6-.42,17.31,7.11,18.57S119.27,71.8,120.12,69.17Z"/>
    <path class="cls-19" d="M158.16,39.17c-1.14.87.92,3.63,3.67,3.47-3.34,3-5.43-4.47-7.61-3.79-1.81.57.86,15.13,19.23,7.26,0,0,6.06,2.52,5.05,12.11,0,0-8.83-4.29-12.61,3.28,0,0,1.51,8.83,8.57,7.06s8.5-9,5.47-17.55c-4-11.32-11.19-12.7-16.86-10.91C160.6,40.88,159.63,38,158.16,39.17Z"/>
    <g>
      <path class="cls-20" d="M160.26,54.74l5.91-1.51s1.75,3.24-.66,4.5-3.88-2.89-3.88-2.89"/>
      <path class="cls-20" d="M174.21,50.6s.65,4.13-1.76,4.81-3.34-3.29-3.34-3.29L175.55,50"/>
      <path class="cls-21" d="M166.53,53.93a2.55,2.55,0,0,1,2.74-1"/>
    </g>
    <path class="cls-8" d="M196.49,73.26c14-6.13,38.49,24.09,40.68,33.07s-3.93,37.19-7,45.71c-1.84,5.15-6.51,1.41-6.29-3.41s1.23-33-.74-37.38S189.26,78.3,196.49,73.26Z"/>
    <path class="cls-8" d="M136,83.83c.63-6,5.34-11.09,6.43-15.3S137,58.15,135.69,55.77c-3.58,3.9,1.23,8.5,1.23,10.14s-3.1,6.77-4.55,6.22c0,0,2.18-7.68-.73-8.59-.18,4.75-6.55,11.33-1.46,19.19C131.78,85.2,135.64,87.25,136,83.83Z"/>
    <path class="cls-8" d="M223.41,147.38c-8.2,3.57-7.38,11-10.24,13.6,2.61,2.93,6.73-5.54,6.73-5.54,4.82,3.72-7.39,8.35-7.09,13,3.55-1.86,4.15-2.41,5.23-2.38s7-.25,8.28-1.38c2.7-2.43,3.38-10,4-14.24C230.28,148.15,227.26,145.7,223.41,147.38Z"/>
    <path class="cls-3" d="M195.3,73.27C198.7,67.75,212,75,223.66,86.43L209.17,96.75S191.72,79.09,195.3,73.27Z"/>
    <path class="cls-6" d="M79.84,234c.25.45.4.7.4.7,5.49-1.2,8.19-5.87,11.54-10.92,2.45-3.68,6.55-8.17,5.89-8.72C96.1,213.81,83.87,229.16,79.84,234Z"/>
    <path class="cls-12" d="M17.27,185.63c-.59-.62,1.8-14,3.58-15.48a4.7,4.7,0,0,1,2.36-1c-1.31-.51-2.63-.82-3.4-.43-1.93,1-5.75,14.9-4.83,20.12,0,0,2.18,5.41,3.72,5.06.5-.12,1.59-2.65,2.82-6A27.07,27.07,0,0,1,17.27,185.63Z"/>
  </g>
</svg>
