<svg id="art" xmlns="http://www.w3.org/2000/svg" width="245.99" height="245.99" viewBox="0 0 245.99 245.99">
  <defs>
    <style>
      .cls-1 {
        fill: #6b6d73;
      }

      .cls-2 {
        fill: #178140;
      }

      .cls-3 {
        fill: #2ca048;
      }

      .cls-4 {
        fill: #854c20;
      }

      .cls-5 {
        fill: #babec5;
      }

      .cls-6 {
        fill: #d4d7dc;
      }

      .cls-7 {
        fill: #393a3d;
      }

      .cls-8 {
        fill: #eceef0;
      }

      .cls-9 {
        fill: #b07242;
      }

      .cls-10 {
        fill: #dca174;
      }

      .cls-11 {
        fill: #3093d1;
      }

      .cls-12 {
        fill: #f9cfae;
      }

      .cls-13 {
        fill: #43a6dd;
      }

      .cls-14 {
        fill: #f15922;
      }

      .cls-15 {
        fill: #fdba12;
      }

      .cls-16 {
        fill: #f57f20;
      }

      .cls-17 {
        fill: #fbad18;
      }
    </style>
  </defs>
  <g>
    <path class="cls-1" d="M142.31,216.53c.47,8.89-4.9,17-5.93,16.55s1.72-9.5.75-10.19c0,0-3.45,8-8.33,7.47s-15.28-2-14.6-3.76,11.32-4.39,11.32-4.39l9.83-11.85"/>
    <path class="cls-2" d="M151.25,134.12c-.6,37.75,6.1,66,55,76.45l4.38-9.1s-28.5-12.81-29.68-18.93-4.46-33.48-4.46-47.95C176.45,124.71,151.48,120.23,151.25,134.12Z"/>
    <path class="cls-3" d="M164.44,134.83C145.53,155,130.75,171,133.81,213.17l8.5,3.36s8.84-36.15,13.55-39.45,31.65-20.59,34.24-39.42S168,131.06,164.44,134.83Z"/>
    <path class="cls-4" d="M119.73,82.37S118.45,123.11,132,124s21.4-24.9,21.4-24.9c2.81-8.42,2-21.4-6.44-11.58s-12.16,12.16-12.16,12.16-5.67-6.84-8.25-18.67C124.88,73.29,120.2,78.63,119.73,82.37Z"/>
    <path class="cls-5" d="M145.79,88.1c6.94-7.35,11.25-2.21,9.64,5s-9,32.52-22.69,32.32S120,104.79,120,104.79l10.8-10.58,4,5.51Z"/>
    <path class="cls-6" d="M145.37,92.45c-5,14.41,7.36,19.49,7.36,22.55s-2.3,8.58-1.87,19.16c0,0,26,15.42,43.18-1.3,0,0,1.88-30-10.36-45.34S152,73.37,145.37,92.45Z"/>
    <path class="cls-7" d="M204,209.82c8.19,4.52-2,18.61.44,20.22s12.64-6.83,13.25-9.24-1.41-8.63.8-10c0,0,5.62,4.82,6,3.82s-5.82-11.65-14.85-13.85Z"/>
    <path class="cls-4" d="M176.31,83.28C172.7,88.1,212,132,215.26,150.7c0,0,7,6.08,6.55-1.4s-1.87-33.68-11.23-44.9S179.92,78.46,176.31,83.28Z"/>
    <path class="cls-8" d="M175.71,81.67c7.83-2.21,30.91,13.45,37.14,24.7,8.78,15.87,7.43,22.28,7.43,22.28s-10,7.63-13.66,7.23C193.37,109.78,168.18,83.79,175.71,81.67Z"/>
    <path class="cls-4" d="M124.33,64.3c1.14,4.37-7.93,13.32-4.07,19.38,1.79,2.83,6.59-1.12,7.89-2.93s5.55-7.4,6.69-10.81-2.82-6-3.87-11.4A10.73,10.73,0,0,0,128.84,67c.25,2.34-3.85,4.84-3.85,4.84C123.86,71.77,129.07,66,124.33,64.3Z"/>
    <path class="cls-9" d="M82.61,220.35l1.12,8.55a4.45,4.45,0,0,0,5.87,3.19l23.27-8.61c-2.48-6.89-11.26-2-19.54-4.71Z"/>
    <path class="cls-10" d="M89.85,63.81c8.63,2.25.07,37.84.8,45.71,0,0,4.85,25.22,10,36.87,1.69,3.86-2.66,6.82-4.79,4.87-9.5-8.71-23.32-30.86-21.13-43.13C77.06,94.86,87.41,63.17,89.85,63.81Z"/>
    <path class="cls-10" d="M94.51,146.07c-8.56,10.58-1,17.6-3.14,20.23,5.1-1.65,1.94-7.76,1.94-7.76,1.71.34,3.58,4.61,2.28,7.29-1,2-3,1.55-3.08,5.1,1.66-1.4,6.83-.65,8.66-4.35,2.26-4.58,2.89-10.42.11-18.72C98.85,141.75,94.51,146.07,94.51,146.07Z"/>
    <path class="cls-9" d="M19.09,215.31l-3.75,6.79a4.45,4.45,0,0,0,2.13,5.5s5.39,4.73,10.15,5.26,15.6,0,15.6,0C41.27,227.25,33,224.57,33,224.57L29.57,219Z"/>
    <path class="cls-7" d="M44.45,130.66c6.69,8.77,17.36,22.21,22.18,38.16,5,16.67,4.23,36.08,11.74,56.09l15-6.14c-8.11-25.82-3.22-61-16.59-90.72C61,90.38,41.84,116.31,44.45,130.66Z"/>
    <path class="cls-1" d="M42.49,122.18C37,163,22,178,19.22,215.55L34,222.63C40.21,175,58.47,175.34,69.89,132,73.72,117.41,44,111.39,42.49,122.18Z"/>
    <path class="cls-11" d="M73.61,52.28C95,54.54,95.94,70.78,92.1,86.8S71.75,112.74,79,131.91l-5.17,2.66-2.28-12.39L70.21,134.9S39.27,130.65,39,128c9.26-19.75-5.82-54.37,9.3-68.9a26.85,26.85,0,0,1,25.27-6.77"/>
    <path class="cls-12" d="M52.68,65.94c6-4.22,26.14,27.45,27.41,27.56S94.68,75,99.42,66.86s7.54-6.41,5.51,3.29-16.51,44.32-25,44.48c-5,.1-16.53-9.37-23.2-22.86C52,82.17,50.21,67.69,52.68,65.94Z"/>
    <path class="cls-13" d="M51.69,63.71C59.72,60.18,76,84.05,76,84.05L56.4,95.21S41.52,68.17,51.69,63.71Z"/>
    <ellipse class="cls-5" cx="62.6" cy="83.55" rx="5.7" ry="2.48" transform="translate(-33.7 43.22) rotate(-30.44)"/>
    <path class="cls-12" d="M110.78,50.37c-.44-.5,4.46-4.37,5.1-6.37s.72-4.17-.13-4.69c-.85,3.41-16.25,3.31-15.17,24.79-.88,4.7,5.78,8.65,8.2,2.2a27.36,27.36,0,0,0,1.66-12.9c2-2.06,6.32-3.42,6.69-7C115.68,48.21,110.78,50.37,110.78,50.37Z"/>
    <g>
      <path class="cls-12" d="M94.4,35.59c.47,7.14-6,13.56-9.73,12.74-2.47,1.24-5.59,13.91-5.59,13.91s-7.7-6.91-8.43-13.09c0,0,5.47-9.7,8.35-15.47S93.93,28.46,94.4,35.59Z"/>
      <path class="cls-14" d="M93,42.34s-.91,11.75-9.71,9.52-3.35-13.39-3.35-13.39.16,4.35.94,5.22,1.08-3.34,6.66-2.8S93,42.34,93,42.34Z"/>
      <path class="cls-14" d="M94.62,34.49c.48-.32,3.76-6.94-2.78-10.51C88.73,26.69,78,26,77.28,31.76s1.84,12.86,4.58,4.85c.5-1.47.35-4.57,2.57-4.54S91.51,35.26,94.62,34.49Z"/>
      <circle class="cls-12" cx="76.16" cy="35.78" r="4.08"/>
      <path class="cls-13" d="M82.32,52.23s3.56,5.87-.7,18.19l-3.41-7.73-6,8L66.55,52.28l4.53-4.88s4.59,9.76,7.45,13.37Z"/>
    </g>
    <g>
      <path class="cls-7" d="M160,49.86c-12.81-4.17-13.55,10.6-20.28,15.41-3,2.11,19,8.28,21.68,6.5S162.65,50.74,160,49.86Z"/>
      <path class="cls-8" d="M163.06,83.12s.8,11.56,1,13.82,2.44,8,2.44,8l-3.66.35a78.52,78.52,0,0,1-2.61-9.24c-.35-2.61-.87-12.89-.87-12.89Z"/>
      <path class="cls-4" d="M163,55.43c1.16,3.73,4.17,15.47,5.17,19.07.72,2.61-3.92,6.09-7.18,10.12-3.27-2.29-5.77-3.82-5.77-5.44,0-3.36-.56-10.52-2.45-12.39S148.5,62.85,150,56.7,160.8,48.36,163,55.43Z"/>
      <path class="cls-7" d="M159.69,50.07c1.38-.7,11.69,6.7,10.07,13.22-1.23,4.93-6,7-7,6.72-1.68-.52.85-5.48.59-8.25S158.32,50.77,159.69,50.07Z"/>
      <circle class="cls-4" cx="163.24" cy="60.24" r="4.23"/>
      <path class="cls-8" d="M168.1,73.74a36.26,36.26,0,0,0,3.17,4.8s-2,5.39-4.32,10.47l-4.59-5.89Z"/>
      <path class="cls-8" d="M155.16,78.85a34.34,34.34,0,0,0,4.12,4.65l-2.45,6.58s-2.43-4.83-3.06-6.44S155.16,78.85,155.16,78.85Z"/>
    </g>
    <g>
      <circle class="cls-15" cx="132.2" cy="35.91" r="2.25"/>
      <circle class="cls-16" cx="125.9" cy="45.58" r="1.8"/>
      <circle class="cls-16" cx="139.83" cy="48.73" r="1.8"/>
      <path class="cls-11" d="M126.24,15.5A33.35,33.35,0,0,0,125,20.58l-.22,1.27,0,.31c0,.05,0,.1,0,.15a1,1,0,0,0,0,.34,1.25,1.25,0,0,0,.4.64,1.69,1.69,0,0,0,.31.21l.16.06.3.08.62.15a5.74,5.74,0,0,1,.72.18,2.9,2.9,0,0,1,1.42,1,3.12,3.12,0,0,1,.61,1.62,9.89,9.89,0,0,1-.13,1.43c-.19,1.7-.37,3.4-.42,5.12l-2-.25c.37-1.68.62-3.37.85-5.07a10.32,10.32,0,0,0,.11-1.12,1.2,1.2,0,0,0-.31-.73,1.27,1.27,0,0,0-.65-.43l-.53-.09-.64-.09-.33-.05a2.28,2.28,0,0,1-.45-.11,3.12,3.12,0,0,1-.81-.42,3.65,3.65,0,0,1-1.15-1.37,3,3,0,0,1-.28-.9,2.63,2.63,0,0,1,0-.49v-.33l-.06-1.29a33.13,33.13,0,0,0-.68-5.18Z"/>
      <path class="cls-17" d="M151.52,13.18a39.09,39.09,0,0,0-1.81,5.92c-.05.25-.12.49-.17.74l-.1.47a3.82,3.82,0,0,1-.18.51,4.75,4.75,0,0,1-1.17,1.57,3.85,3.85,0,0,1-1.73.93l-1.48.37-1.47.4-.74.19a1.36,1.36,0,0,0-.47.2,1.53,1.53,0,0,0-.62.79,1.41,1.41,0,0,0-.09.49.84.84,0,0,0,0,.26l.05.37c.32,2,.66,4,1.1,6l-2,.3c-.15-2-.4-4.06-.68-6.08l-.05-.37a2.6,2.6,0,0,1,0-.5,3.11,3.11,0,0,1,.18-1,3.22,3.22,0,0,1,1.21-1.59,3.56,3.56,0,0,1,.91-.43l.73-.23L144.4,22l1.45-.49a2,2,0,0,0,.89-.57,2.2,2.2,0,0,0,.53-.93,1,1,0,0,0,0-.23l0-.28c0-.25,0-.51,0-.77a38.79,38.79,0,0,0-.13-6.18Z"/>
      <path class="cls-16" d="M167.18,32.08a26.78,26.78,0,0,0-3.8,5,3.38,3.38,0,0,1-3.87,1.43c-1-.39-1.91-.79-2.88-1.14l-.71-.28c-.25-.09-.49-.19-.63-.22a2.22,2.22,0,0,0-1.14,0,2.26,2.26,0,0,0-1,.56c-.29.32-.66.75-1,1.13-1.31,1.56-2.6,3.14-3.8,4.8l-1.51-1.31c1.46-1.43,2.84-2.93,4.18-4.46l1-1.18a3.72,3.72,0,0,1,1.63-1,4,4,0,0,1,1.88-.12,3.54,3.54,0,0,1,.47.12l.36.12.73.24c1,.32,2,.62,2.89.89a1.3,1.3,0,0,0,.84-.11,1.13,1.13,0,0,0,.53-.6A26.55,26.55,0,0,0,163,30Z"/>
    </g>
    <path class="cls-4" d="M229.83,155.58A23.55,23.55,0,0,0,228,153a53.23,53.23,0,0,0-6-6.46c-3.58-3.27-6.76-1.32-7.1,3.18a35.72,35.72,0,0,0-.18,5.94c.29,2.91,1.6,5.56,2.29,8.37.19.77.34,1.59.45,2.37,1.63-.56,1-4,.79-5.28-.14-.88-.39-1.27.27-2,.52-.54.85-.92,1.54-.6a6.75,6.75,0,0,1,2.79,2.34c.63,1.08.82,2.45,1.38,3.59.28.56.66,1,.95,1.6.06.12.19.57.31.65.35.24.8-.16,1-.44s.33-.8.54-1.17a14.37,14.37,0,0,1,1.3-1.51c.53-.69,1-1.42,1.47-2.12a4.48,4.48,0,0,0,1.16-2.68A6.87,6.87,0,0,0,229.83,155.58Z"/>
  </g>
</svg>
