<svg xmlns="http://www.w3.org/2000/svg" xmlns:xlink="http://www.w3.org/1999/xlink" width="245.99" height="245.99" viewBox="0 0 245.99 245.99">
  <defs>
    <style>
      .cls-1 {
        fill: none;
      }

      .cls-2 {
        isolation: isolate;
      }

      .cls-3 {
        fill: #efeded;
      }

      .cls-4 {
        fill: #4e2a17;
      }

      .cls-5, .cls-6 {
        fill: #9e95c9;
      }

      .cls-6 {
        opacity: 0.42;
        mix-blend-mode: multiply;
      }

      .cls-7 {
        fill: #854c20;
      }

      .cls-11, .cls-12, .cls-8 {
        fill: #fff;
      }

      .cls-8 {
        opacity: 0.28;
      }

      .cls-9 {
        clip-path: url(#clip-path);
      }

      .cls-10 {
        fill: #393a3d;
      }

      .cls-11 {
        opacity: 0.12;
      }

      .cls-12 {
        opacity: 0.27;
      }

      .cls-13 {
        fill: #f6f7fa;
      }

      .cls-14 {
        fill: #babec5;
      }
    </style>
    <clipPath id="clip-path">
      <circle class="cls-1" cx="99.55" cy="136.74" r="47.66"/>
    </clipPath>
  </defs>
  <g class="cls-2">
    <g id="art">
      <g>
        <circle class="cls-3" cx="99.55" cy="136.74" r="47.66"/>
        <g>
          <path class="cls-4" d="M92.86,78c-4.13-2.2-4.18,1.29-6.12,7.73S74,88.88,68.49,88.14s-11.42,5.72-6.5,14c7.24,12.21,25,11.32,30,5.42S98.89,81.17,92.86,78Z"/>
          <g>
            <g>
              <path class="cls-5" d="M117.15,98.88c7.56,5.16,11.59,26.27,9.77,31.52s13.22,1.42,29.58-2.46c7.42-1.75,8,8.63,2.48,11.54s-35.37,21.63-47.79,7.3S108.37,92.9,117.15,98.88Z"/>
              <path class="cls-6" d="M117.15,98.88c7.56,5.16,11.59,26.27,9.77,31.52s13.22,1.42,29.58-2.46c7.42-1.75,8,8.63,2.48,11.54s-35.37,21.63-47.79,7.3S108.37,92.9,117.15,98.88Z"/>
            </g>
            <path class="cls-7" d="M160.45,128.38c4.1-.35,9.68-5.24,11.69-7.21,1.07,3-.28,4.9-4.61,8.28,0,0,17.77-.43,19.4,4-11.17.19-7.06,7-21,5.93S156.35,128.73,160.45,128.38Z"/>
            <path class="cls-8" d="M181.18,134.42s-3.73-.85-8.67,2.07c0,0-10.79-6-14.53-1.78S165.74,147.08,181.18,134.42Z"/>
          </g>
          <g class="cls-9">
            <g>
              <path class="cls-7" d="M131,251.63s6.93,23.45,2,24.36-13.35-21.46-14.51-24.94,4.93-8.42,4.93-8.42Z"/>
              <path class="cls-10" d="M120,168.47s33.35,10.11,37.91,23.82-27.18,60.05-27.18,60.05l-8.5-9.42s17.49-33.31,13.72-41-32-18.76-32-18.76Z"/>
              <path class="cls-10" d="M77.88,179.87c-6.49,5.82-4,21.25,12.07,28.85s29.53,6,38,11,25.39,48,25.39,48,.56,2.58,13.08,2.8c0,0-11-56.36-17.22-66.87s-27.51-16.1-45.18-21S84.36,174.06,77.88,179.87Z"/>
              <path class="cls-11" d="M77.88,179.87c-6.49,5.82-4,21.25,12.07,28.85s29.53,6,38,11,25.39,48,25.39,48,.56,2.58,13.08,2.8c0,0-11-56.36-17.22-66.87s-27.51-16.1-45.18-21S84.36,174.06,77.88,179.87Z"/>
              <path class="cls-5" d="M90.4,99.13s10.14,5.14,11.71,4.69c.9-.26,1.6-7.3,5.68-7.48,18.62-.84,22.65,24.65,14.93,39.58-5.5,10.65,1.31,26.09,4.83,33,5.39,10.51-47.48,38-54.6,14.34-6.93-23-8.27-60.17.68-72.92C81.17,99.56,90.4,99.13,90.4,99.13Z"/>
            </g>
          </g>
          <path class="cls-7" d="M105.82,65.32c9,1.27,8.05,18.66,1.12,20.68,0,0-2.25,6.73,1.78,15.9,1.88,4.29-1.42,6.56-5.52,6.59-4.66,0-10.42-2.71-12-6.16-2.91-6.49,4.64-7.64,3.52-15.69S92.19,63.39,105.82,65.32Z"/>
          <path class="cls-7" d="M96.51,145.37c6.4-2.41,12.57-4.7,15.23-4.73,20-2.47,22.79,7.73,29,7.73-.11.68-3.21,2.49-6.29,2.55s-6-2.31-9.12-2.42c0,0,4,4.12,5.3,5.18-3.08.69-5.31-1.91-8.21-2.28S116.6,154.51,109,149c-.72.12-5.07,3.23-10.82,6.85"/>
          <path class="cls-5" d="M78.32,106.29c-10.45-1.4-33.6,50-19.51,59.62S103,154,103,154l-2.4-11s-17,7-19.63,5.87S88.78,107.69,78.32,106.29Z"/>
          <path class="cls-12" d="M78.32,106.29c-10.45-1.4-33.6,50-19.51,59.62S103,154,103,154l-2.4-11s-17,7-19.63,5.87S88.78,107.69,78.32,106.29Z"/>
          <path class="cls-13" d="M107,96.5s2.37,5.28-1.68,11.58c0,0-9.89-5-13.75-12.92a22.52,22.52,0,0,1-4.36,4.36s10.62,13.7,13.53,13.7,4.92-5.14,4.92-5.14,2.08,4.55,5.07,3.73S113.16,100.36,107,96.5Z"/>
          <path class="cls-4" d="M112.07,68.33s-17,1.54-17.7,15.09c0,0-7.85.14-7.31-7.2.47-6.45,8-15,15.09-14.62C107.93,61.89,109.55,64,112.07,68.33Z"/>
          <path class="cls-14" d="M186.81,137.59,194,107.51a2.63,2.63,0,0,0-3.39-3l-36.19,10.07a5.22,5.22,0,0,0-3.76,3.87l-6.42,29.71-15.82,5.06a5,5,0,0,0-3.35,6.37h0l58.16-18.29A5.2,5.2,0,0,0,186.81,137.59Z"/>
        </g>
      </g>
    </g>
  </g>
</svg>
