<svg xmlns="http://www.w3.org/2000/svg" xmlns:xlink="http://www.w3.org/1999/xlink" width="228" height="200" viewBox="0 0 228 200">
    <defs>
        <path id="a" d="M194.082 97.851c0 53.886-43.358 97.568-96.844 97.568S.393 151.737.393 97.851C.393 43.966 43.753.283 97.238.283c53.486 0 96.844 43.683 96.844 97.568z"/>
    </defs>
    <g fill="none" fill-rule="evenodd">
        <path fill="#64C8D0" d="M228 97.5c0 53.848-43.428 97.5-97 97.5s-97-43.652-97-97.5S77.428 0 131 0s97 43.652 97 97.5z"/>
        <g transform="translate(34)">
            <mask id="b" fill="#fff">
                <use xlink:href="#a"/>
            </mask>
            <path fill="#854C20" d="M122.26 36.29c-9.635-5.944-23.154-5.35-34.199 6.603-9.11 9.905-11.47 19.332-23.236 29.6C53.06 82.764 22.22 82.73 21.958 115.137c-.36 38.35 62.646 36.799 83.31 6.505 6.93-10.153 5.374-20.636 10.552-31.565 3.917-8.255 14.748-17.087 16.272-27.025 1.753-11.276-.64-21.099-9.832-26.761z" mask="url(#b)"/>
            <path fill="#F15922" d="M87.373 103.58c-6.997-1.519-29.955 44.756-35.215 46.225-5.26 1.47-33.445-.165-35.427 7.28-1.983 7.446 42.605 26.778 54.272 23.625 11.667-3.153 28.955-74.456 16.37-77.13z" mask="url(#b)"/>
            <path fill="#F26B21" d="M159.032 110.283c-24.089-31.037-63.564-21.825-76.673-2.906-6.555 9.51-9.832 20.834-9.586 28.164.557 12.943 8.832 21.132 10.356 29.502 2.294 12.58-13.355 18.358-13.601 38.548-.147 13.422 73.74 41.553 86.685 9.906 12.945-31.648 16.878-85.104 2.819-103.214z" mask="url(#b)"/>
            <path fill="#F9CFAE" d="M90.83 57.058c.394-24.764 30.922-26.827 35.641-6.72 3.622 16.74-1.392 16.757-.819 21.925 1.196 10.813 6.899 15.303 6.653 21.23-.475 11.44-31.544 15.42-27.021.297 1.36-4.523.295-10.863-1.147-14.742-1.442-3.88-13.569-5.283-13.306-21.99z" mask="url(#b)"/>
            <path fill="#393A3D" d="M57.992 196.327c-4.637-3.88-19.107-4.952-22.646 3.896-3.54 8.85-5.637 22.056 2.36 33.844 9.274 13.67 60.63 15.914 66.398 4.325 5.768-11.59 1.638-19.992-16.633-27.256-12.093-4.837-24.842-10.913-29.479-14.809z" mask="url(#b)"/>
            <path fill="#393A3D" d="M57.451 196.592s-3.457-10.814-5.915-10.995c-2.458-.182-2.36 9.608-1.278 10.912 1.786 2.196 6.997 2.36 7.193.083zM35.346 201.693c-.983-1.651.41-13.323 2.36-14.71 1.95-1.386 5.096 6.752 4.375 10.566-.721 3.814-5.752 5.795-6.735 4.144z" mask="url(#b)"/>
            <path fill="#854C20" d="M91.765 48.704c23.482-15.832 33.346 11.557 39.639 8.007 5.8-19.794-31.2-39.209-39.64-8.007z" mask="url(#b)"/>
            <path fill="#F9CFAE" d="M135.478 56.497c.667 3.927-1.62 7.598-5.107 8.2-3.488.6-6.857-2.096-7.524-6.023-.667-3.927 1.62-7.598 5.108-8.2 3.488-.601 6.856 2.095 7.523 6.023z" mask="url(#b)"/>
            <path stroke="#393A3D" stroke-linecap="round" stroke-linejoin="round" stroke-width="1.3" d="M102.596 59.732l-4.686.809M96.68 56.81l.64 8.898c0 1.949-.557 3.5-2.458 3.83l-1.803.298a3.832 3.832 0 0 1-4.31-2.625l-2.916-9.064 29.037-4.952.704 8.254c.242 3.061-1.903 5.791-4.916 6.257l-1.327.198c-2.523.38-3.769-1.155-4.916-3.467l-3.031-8.75" mask="url(#b)"/>
        </g>
        <path fill="#F57F20" d="M132.997 169.894c3.045.51 46.167 34.318 64.944 28.527 31.105-9.592 8.317-68.95-3.454-84.183-11.77-15.234-16.535-12.24-18.14-2.6-4.108 24.678 9.12 47.348 4.044 50.737-5.075 3.39-41.926-5.741-51.7-5.857l4.306 13.376z"/>
        <path fill="#F9CFAE" d="M132.997 169.894c-12.032 8.785-16.665 3.29-21.282 3.816-4.617.527-8.186 4.755-13.097 3.653 2.128-1.646 8.431-8.226 8.431-8.226-4.911.164-9.61 3.948-14.505 3.866-4.895-.082-9.822-2.978-10.002-4.08 9.822 0 14.308-16.304 46.117-12.355 9.331 0 10.805 11.286 4.338 13.326z"/>
        <path fill="#ECEEF0" d="M11.851 151.632L.391 103.594a4.24 4.24 0 0 1 1.34-3.951 4.192 4.192 0 0 1 4.063-.87l57.544 16.09a8.355 8.355 0 0 1 6.009 6.17l10.199 47.479 25.146 8.077a7.932 7.932 0 0 1 4.834 3.946 7.998 7.998 0 0 1 .503 6.238l-92.497-29.235a8.208 8.208 0 0 1-5.68-5.906z"/>
        <path fill="#D4D7DC" d="M42.434 129.81c3.84 2.533 5.452 6.883 3.602 9.717-1.85 2.833-6.464 3.077-10.303.544-3.84-2.533-5.453-6.883-3.602-9.716 1.85-2.834 6.463-3.077 10.303-.544z"/>
    </g>
</svg>
