<?xml version="1.0" encoding="utf-8"?>
<!-- Generator: Adobe Illustrator 24.0.3, SVG Export Plug-In . SVG Version: 6.00 Build 0)  -->
<svg version="1.1" id="Layer_2" xmlns="http://www.w3.org/2000/svg" xmlns:xlink="http://www.w3.org/1999/xlink" x="0px" y="0px"
	 viewBox="0 0 95.68 73.86" style="enable-background:new 0 0 95.68 73.86;" xml:space="preserve">
<g>
	<g>
		<path style="fill:#B0B7BF;" d="M45.87,27.42H42.1c-4.14,0-7.51-3.37-7.51-7.51V8.99c0-4.14,3.37-7.51,7.51-7.51h3.77
			c4.14,0,7.51,3.37,7.51,7.51v10.93C53.38,24.06,50.01,27.42,45.87,27.42z M42.1,2.98c-3.31,0-6.01,2.69-6.01,6.01v10.93
			c0,3.31,2.69,6.01,6.01,6.01h3.77c3.31,0,6.01-2.69,6.01-6.01V8.99c0-3.31-2.7-6.01-6.01-6.01H42.1z"/>
	</g>
	<g>
		<path style="fill:#B0B7BF;" d="M88.85,31.17c-0.09,0-0.18-0.02-0.27-0.05c-3.61-1.39-5.43-5.77-5.43-13.03v-5.09
			c0-3.31-2.69-6.01-6.01-6.01h-3.77c-3.31,0-6.01,2.69-6.01,6.01v8.93c0,3.31,2.69,6.01,6.01,6.01h3.77c1.61,0,3.13-0.63,4.27-1.78
			c0.29-0.29,0.77-0.3,1.06,0c0.29,0.29,0.3,0.77,0,1.06c-1.42,1.43-3.31,2.22-5.33,2.22h-3.77c-4.14,0-7.51-3.37-7.51-7.51v-8.93
			c0-4.14,3.37-7.51,7.51-7.51h3.77c4.14,0,7.51,3.37,7.51,7.51v5.09c0,6.48,1.55,10.51,4.47,11.63c0.39,0.15,0.58,0.58,0.43,0.97
			C89.43,30.98,89.15,31.17,88.85,31.17z"/>
	</g>
	<g>
		<path style="fill:#B0B7BF;" d="M80.92,17.52c-0.01,0-0.02,0-0.03,0c-3.15-0.12-9.03-2.77-11.14-5.58
			c-0.25-0.33-0.18-0.8,0.15-1.05c0.33-0.25,0.8-0.18,1.05,0.15c1.83,2.45,7.19,4.88,10,4.98c0.41,0.02,0.74,0.36,0.72,0.78
			C81.65,17.2,81.32,17.52,80.92,17.52z"/>
	</g>
	<g>
		<path style="fill:#B0B7BF;" d="M37.21,16.53c-0.41,0-0.75-0.34-0.75-0.75s0.34-0.75,0.75-0.75c1.39,0,3.38-1.81,5.29-3.56
			c2.41-2.2,4.89-4.47,7.37-4.47c0.41,0,0.75,0.34,0.75,0.75c0,0.41-0.34,0.75-0.75,0.75c-1.89,0-4.16,2.07-6.35,4.08
			C41.29,14.6,39.19,16.53,37.21,16.53z"/>
	</g>
	<g>
		<path style="fill:#B0B7BF;" d="M52.63,70.06c-0.75,0-1.48-0.01-2.16-0.01c-2.33-0.02-4.84-0.08-7.67-0.18
			c-2.01-0.07-4.02-0.16-6.03-0.26c-0.78-0.04-1.56-0.08-2.34-0.12c-0.41-0.02-0.73-0.38-0.71-0.79c0.02-0.41,0.38-0.73,0.79-0.71
			c0.78,0.04,1.55,0.08,2.33,0.12c2,0.1,4.01,0.19,6.01,0.26c2.81,0.1,5.31,0.16,7.63,0.18c2.13,0.02,4.65,0.03,7.17-0.09
			c0.76-0.04,1.75-0.09,2.75-0.21l0.18-0.02c1.17-0.13,1.58-0.27,1.71-0.81c0.16-0.64-0.05-1.43-0.24-2.2
			c-0.05-0.2-0.1-0.4-0.15-0.6l-0.73-3.19c-0.55-2.43-1.09-4.87-1.61-7.31c-0.48-2.28-0.99-4.72-1.42-7.2L58,46.12
			c-0.24-1.26-0.48-2.56-0.39-3.86c0.27-3.42,8.52-8.9,8.61-8.95c0.15-0.09,0.32-0.13,0.49-0.11c0.71,0.09,1.33,0.88,5.33,7.88
			c0.92,1.62,1.87,3.28,2.5,4.29c2.41-3.65,7.12-10.8,7.6-11.76c0.1-0.2,0.28-0.34,0.49-0.39c0.21-0.05,0.44-0.01,0.62,0.12
			c0.11,0.08,2.71,1.93,5.46,4.42c3.18,2.89,2.58,7.92,2.09,9.61c-0.54,1.82-4.68,21.33-4.72,21.52c-0.07,0.35-0.38,0.59-0.73,0.59
			H68.81c-0.41,0-0.75-0.34-0.75-0.75s0.34-0.75,0.75-0.75h15.91c0.72-3.36,4.12-19.32,4.62-21.04c0.59-2.01,0.66-5.97-1.66-8.08
			c-1.87-1.7-3.71-3.12-4.66-3.83c-1.75,2.87-7.58,11.67-7.86,12.09c-0.13,0.2-0.35,0.32-0.58,0.33c-0.23,0.02-0.46-0.08-0.62-0.26
			c-0.54-0.64-1.79-2.83-3.24-5.37c-1.37-2.39-3.35-5.87-4.18-6.94c-2.18,1.48-7.29,5.57-7.44,7.48c-0.07,1.1,0.15,2.31,0.37,3.47
			c0.05,0.27,0.1,0.54,0.15,0.8c0.43,2.45,0.93,4.89,1.41,7.15c0.52,2.44,1.06,4.87,1.61,7.29l0.73,3.19
			c0.04,0.18,0.09,0.37,0.14,0.56c0.23,0.9,0.49,1.92,0.25,2.92c-0.4,1.65-1.96,1.83-3,1.95l-0.17,0.02
			c-1.04,0.12-2.07,0.18-2.85,0.22C55.98,70.03,54.24,70.06,52.63,70.06z M66.28,34.6L66.28,34.6L66.28,34.6z"/>
	</g>
	<g>
		<path style="fill:#B0B7BF;" d="M43.98,42.62c-0.63,0-1.17-0.54-4.42-4.45c-1.65-1.99-4.4-5.29-5.18-5.68
			c-0.87,0.06-2.79,1.1-4.25,2.07c-0.35,0.23-0.81,0.14-1.04-0.21c-0.23-0.34-0.14-0.81,0.21-1.04c1.05-0.7,3.66-2.33,5.15-2.33
			c0.94,0,2.32,1.48,6.26,6.22c1.18,1.42,2.62,3.15,3.26,3.76c0.67-0.63,2.19-2.44,3.44-3.93c3.93-4.69,5.21-6.05,6.09-6.05
			c1.34,0,5.04,2.46,6.15,3.21c0.34,0.23,0.43,0.7,0.2,1.04c-0.23,0.34-0.7,0.43-1.04,0.2c-2-1.36-4.5-2.82-5.22-2.94
			c-0.76,0.43-3.31,3.48-5.02,5.51C45.18,42.06,44.62,42.62,43.98,42.62z M44.23,41.17L44.23,41.17L44.23,41.17z M53.65,32.47
			L53.65,32.47z"/>
	</g>
</g>
<path style="fill:#28B04B;" d="M20.16,33.47c-9.86,0-17.85,7.99-17.85,17.85s7.99,17.85,17.85,17.85s17.85-7.99,17.85-17.85
	S30.02,33.47,20.16,33.47z M28.97,52.31h-7.82v7.82c0,0.55-0.44,0.99-0.99,0.99c-0.55,0-0.99-0.44-0.99-0.99v-7.82h-7.82
	c-0.55,0-0.99-0.44-0.99-0.99s0.44-0.99,0.99-0.99h7.82v-7.82c0-0.55,0.44-0.99,0.99-0.99c0.55,0,0.99,0.44,0.99,0.99v7.82h7.82
	c0.55,0,0.99,0.44,0.99,0.99S29.51,52.31,28.97,52.31z"/>
</svg>
